<svg xmlns="http://www.w3.org/2000/svg" xmlns:xlink="http://www.w3.org/1999/xlink" width="1920" height="1080" viewBox="-15 168.5 1920 1080">
  <defs>
    <style>
      .cls-1 {
        fill: #fff;
        stroke: #000;
        stroke-width: 1px;
      }

      .cls-1, .cls-2 {
        fill-rule: evenodd;
      }

      .cls-2 {
        fill: #010000;
      }
    </style>
    <clipPath id="clip-path">
      <rect width="1890" height="1417"/>
    </clipPath>
  </defs>
  <g clip-path="url(#clip-path)">
    <path class="cls-1" d="M945,389c132.55,0,240,143.045,240,319.5S1077.55,1028,945,1028,705,884.955,705,708.5,812.452,389,945,389Z"/>
    <path id="PLACEHOLDER" class="cls-2" d="M752.105,612.29q2.14-3.286,4.332-6.478l-8.679-10.677a59.789,59.789,0,0,0,3.909-5.114c4.547-6.418,7.945-12.815,9.114-18.225,0.9-3.939.551-7.333-1.23-10.037-1.748-2.655-4.493-3.242-7.649-1.844-3.444,1.449-7.818,5.449-12.753,12.447a137.62,137.62,0,0,0-8.935,14.475Zm-15.05-30.324a62.505,62.505,0,0,1,4.378-6.954c5.466-7.723,10.515-10.577,13.161-6.735,2.783,4.052.654,10.759-5.027,18.75a59.069,59.069,0,0,1-4.091,5.3Zm43.014-6.336a267.28,267.28,0,0,1,21.622-21.6q-0.885-1.841-1.771-3.679-8.682,7.739-16.952,16.527l-16.365-28.2q-2.755,2.986-5.464,6.079Zm44.875-54.336q4.412,4.255,8.666,8.718,2.965-1.86,5.96-3.613a292.51,292.51,0,0,0-28.146-27.336q-3.7,2.622-7.35,5.4-0.8,24.036.365,47.163,2.7-2.33,5.431-4.558-0.289-7.235-.395-14.566Q817.087,526.526,824.944,521.294Zm-15.8,6.717q0-6.808.173-13.692c0.012-2.85-.091-5.608-0.228-8.269l0.138-.1a64.535,64.535,0,0,0,4.918,4.912q4.212,3.657,8.3,7.5-6.735,4.556-13.3,9.654h0Zm64.884-23.744a38.062,38.062,0,0,1-9.33,5.447c-10.986,4.624-18.884,2.056-21.562-7.453-2.858-10.106,3.146-20.258,14.972-25.353a26.358,26.358,0,0,1,10.47-2.378q0.4-2.437.825-4.878c-1.863-.082-6.1.291-12.433,3.006-15.875,6.889-23.813,21.451-20.132,33.284,3.858,12.513,15.053,13.9,27.579,8.62A47.636,47.636,0,0,0,875.984,508Q875.012,506.129,874.024,504.267ZM905.7,476.689q-9.7,1.812-19.3,4.548l-1.7-13.126q10.521-3.04,21.181-5.011l-0.318-4.587a225.037,225.037,0,0,0-28.123,7.148q3.075,20.613,6.152,41.225a198.628,198.628,0,0,1,25.949-6.2q-0.153-2.295-.3-4.591a200.747,200.747,0,0,0-20.311,4.55q-0.972-7.486-1.945-14.974,9.468-2.687,19.05-4.464Q905.863,478.948,905.7,476.689Zm9.85-19.8q0.9,21.324,1.8,42.648,3.009-.382,6.024-0.67l-0.474-20.075a204.93,204.93,0,0,1,24.022-1.021q-0.459,10.134-.92,20.269,3.057,0.067,6.111.233,1.385-21.643,2.77-43.286-3.459-.144-6.918-0.18-0.411,9.045-.821,18.089a207.845,207.845,0,0,0-24.358,1.068q-0.21-8.958-.422-17.915Q918.95,456.416,915.549,456.888Zm72.67,1.34c-14.211-2.764-25.5,5.632-26.55,19.342-1.02,13.149,6.872,22.609,18.962,25.1,11.689,2.379,22.919-2.178,26.329-16.871C1009.9,473.21,1002.73,461.108,988.219,458.228Zm-1.012,4.488c11.278,2.261,14.793,12.875,13.023,21.34-2.036,9.761-9.038,16.131-18.556,14.138-9.454-1.928-14.057-10.745-13.128-20.034,0.951-9.462,7.453-17.577,18.661-15.444h0Zm22.553,47.532a211.7,211.7,0,0,1,24.91,11.051c0.5-1.493,1.01-2.986,1.51-4.478q-9.555-4.979-19.35-8.9,5.04-18.843,10.09-37.685-3.315-1.288-6.64-2.47Q1015.015,489.008,1009.76,510.248Zm31.27,14.362c2.74,1.916,6.02,4.065,9.97,6.575,8.33,5.3,15.63,8.151,21.35,7.6,5.67-.494,10.47-3.769,13.7-10.012,3.19-6.169,3.16-12.535.55-18.892-2.54-6.275-8.07-12.674-17.14-18.431a87.969,87.969,0,0,0-13.85-7.153Zm19.48-32.819a43.415,43.415,0,0,1,7.55,3.956c13.23,8.514,16.51,19.474,11.94,28.438-5.21,10.481-14.33,11.229-26.22,3.515a66.058,66.058,0,0,1-5.58-3.848Q1054.35,507.821,1060.51,491.791Zm55.78,62.78q-7.965-8.7-16.3-16.465,3.375-5.844,6.76-11.687,9.18,8.5,17.94,18.087c0.86-1.264,1.71-2.527,2.57-3.791a304.235,304.235,0,0,0-24.07-23.6l-20.67,37.546a270.208,270.208,0,0,1,21.87,22l2.58-3.78q-8.265-9.289-16.99-17.493,3.87-6.667,7.72-13.334,8.22,7.675,16.07,16.267Zm-5.68,29.348q2.37,2.855,4.7,5.805,5.505-7.211,11.02-14.422,2.325,2.929,4.62,5.949c4.29,5.984,4.83,10.461,2.14,16.283-2.38,5.344-3.98,9.127-4.2,10.819q2.25,3.346,4.46,6.8c0.4-2.235,2.32-6.37,5.05-12.353a16.278,16.278,0,0,0,.26-13.951l0.12-.14c4.83,4.341,10.25,6.272,13.96,2.282,2.16-2.335,3.02-6.009,2.31-10.222-0.84-5.228-3.64-11.061-9.25-18.383a97.038,97.038,0,0,0-10.77-12.014Zm27.49-24.026a45.179,45.179,0,0,1,5.47,6.2c5.44,7.236,7.48,14.251,3.95,18.237-3.15,3.551-8.39,1.186-13.62-5.745q-2.52-3.323-5.08-6.539Q1133.455,565.967,1138.1,559.893Z"/>
    <path id="PLACEHOLDER-2" data-name="PLACEHOLDER" class="cls-2" d="M770.92,911.452q2.024,3.066,4.093,6.044l7.819-10.407a36.961,36.961,0,0,0,3.043,4.715c3.94,5.388,8.241,8.857,11.752,9.437,2.568,0.486,4.691-.583,6.294-3.195a12.011,12.011,0,0,0,1.012-9.2c-0.853-3.694-3.119-7.916-6.832-12.853-3.022-4.025-5.5-7.1-7.457-9.407Zm21.557-17.2a48.237,48.237,0,0,1,3.756,4.588c4.19,5.578,5.907,10.776,3.51,14.524-2.49,3.891-6.955,2.353-11.787-4.2a35.261,35.261,0,0,1-3.067-4.812l7.588-10.1h0Zm4.832,51.378a249.935,249.935,0,0,0,20.365,20.1l1.6-3.534q-7.966-6.976-15.565-14.912l14.745-27.2q-2.058-2.1-4.085-4.27Zm49.773,28.513q0.217,6.908.609,13.885,2.787,1.724,5.6,3.346-1.685-22.2-1.567-43.731-2.731-1.8-5.43-3.72a258.305,258.305,0,0,1-26.035,24.045q2.538,2.164,5.11,4.235,4.177-3.666,8.227-7.535,6.642,5.06,13.485,9.475h0Zm-11.147-12.159q3.734-3.575,7.352-7.317a64.5,64.5,0,0,0,4.1-5.01l0.105,0.073c-0.2,2.373-.411,4.8-0.406,7.635q0.009,6.238.165,12.542Q841.524,966.176,835.935,961.985Zm51.5,39.5a21.159,21.159,0,0,1-9.1-1.741c-10.213-4.217-14.422-13.231-12.026-22.217,2.586-9.718,9.721-12.258,18.454-8.848a24.137,24.137,0,0,1,7.337,4.378q0.938-1.844,1.859-3.7a27,27,0,0,0-8.538-4.886c-11.344-4.4-21.106-.987-24.439,10.433-3.467,11.885,3.393,23.494,15.4,28.521,5.14,2.14,9.356,2.65,11.519,2.42C887.743,1004.4,887.588,1002.94,887.438,1001.49ZM918.6,991.5q-7.852-1.28-15.638-3.305l1.536-12.5q7.88,2.005,15.839,3.21l0.288-4.366a161.876,161.876,0,0,1-20.468-4.434q-2.77,19.63-5.543,39.264a184.354,184.354,0,0,0,24.327,5.63c0.092-1.45.183-2.91,0.275-4.37a184.218,184.218,0,0,1-18.526-3.95q0.876-7.14,1.753-14.262,7.89,2.07,15.86,3.383l0.3-4.3h0Zm9.272-16.045q-0.808,20.289-1.617,40.576,2.819,0.345,5.642.59,0.215-9.555.427-19.1a169.81,169.81,0,0,0,19.932.442q0.415,9.64.829,19.287c1.907-.06,3.813-0.14,5.719-0.26l-2.5-41.188q-2.494.2-4.991,0.31,0.371,8.607.74,17.212a167.471,167.471,0,0,1-19.63-.4q0.191-8.523.38-17.045Q930.337,975.706,927.869,975.454Zm52.237-4.036c-9.927,2.349-16.737,11.631-15.778,24.746,0.908,12.436,9.758,20.276,21.352,17.856,11.2-2.34,18.61-12.9,15.53-26.881C998.557,975.031,990.257,969.009,980.106,971.418Zm0.407,4.385c8.138-1.923,13.684,5.178,15.291,13.335,1.826,9.237-1.588,18.552-10.432,20.482-8.787,1.85-14.581-5.51-15.411-14.289-0.865-9.089,2.459-17.686,10.552-19.528h0Zm32.187,29.607a197.611,197.611,0,0,0,23.26-10.5c-0.45-1.427-.91-2.855-1.36-4.282q-8.67,4.613-17.55,8.27l-9.09-35.967q-2.355,1.014-4.74,1.951,4.74,20.264,9.48,40.524h0Zm29.11-13.864a72.3,72.3,0,0,0,9.65-5.307c7.8-5.035,13.03-11.555,14.97-17.843a25.015,25.015,0,0,0-1.49-18.735c-2.88-5.948-6.72-8.637-11.12-9.22-4.37-.628-9.46,1.26-15.85,5.622-3.53,2.4-6.67,4.8-9.29,6.914Q1035.25,972.262,1041.81,991.546Zm-7.26-37.665a41.6,41.6,0,0,1,5.15-4.018c9.48-6.522,16.47-4.9,20.51,3.953,4.66,9.945,1.68,20.525-9.28,27.764a35.708,35.708,0,0,1-5.28,3Zm52.56-29.011q-6.27,7.139-12.87,13.54l-6.09-11.27q6.63-6.51,12.93-13.8l-2.31-3.672a221.941,221.941,0,0,1-16.84,17.571l18.63,36.163a252.737,252.737,0,0,0,20.34-20.713c-0.77-1.22-1.55-2.441-2.32-3.661q-7.455,8.517-15.32,16.054-3.48-6.429-6.95-12.858,6.69-6.483,13.07-13.717C1088.63,927.291,1087.87,926.08,1087.11,924.87Zm19.58,10.989q2.2-2.685,4.36-5.458l-9.93-14.024q1.92-2.481,3.78-5.036c3.7-4.79,6.53-5.552,10.81-2.65,3.91,2.551,6.74,4.119,7.95,4.2q2.085-3.144,4.14-6.383c-1.62-.133-4.78-1.844-9.24-4.517-3.31-2.018-6.42-2.085-9.35.45a1.222,1.222,0,0,0-.11-0.137c2.27-5.693,2.41-12.057-.93-15.961-1.95-2.294-4.43-3.089-6.89-2.312-3.09.914-6.08,3.809-9.95,9.193-2.5,3.474-5.02,7.222-6.63,10.061Zm-16.17-34.467a40.13,40.13,0,0,1,3.4-5.357c3.91-5.342,7.82-7.571,11.02-3.649,2.82,3.448,2.17,9.648-2.02,15.415q-2,2.746-4.04,5.406Q1094.695,907.3,1090.52,901.392Z"/>
  </g>
</svg>
